<svg version="1.1" xmlns="http://www.w3.org/2000/svg" xmlns:xlink="http://www.w3.org/1999/xlink" viewBox="0 0 252 252"><g fill="none" fill-rule="nonzero" stroke="none" stroke-width="1" stroke-linecap="butt" stroke-linejoin="miter" stroke-miterlimit="10" stroke-dasharray="" stroke-dashoffset="0" font-family="none" font-weight="none" font-size="none" text-anchor="none" style="mix-blend-mode: normal"><path d="M0,252v-252h252v252z" fill="none"></path><g id="Layer_1"><g><g fill="#9b59b6"><g><ellipse cx="75.3" cy="70.6" transform="scale(1.96875,1.96875)" rx="45" ry="35"></ellipse></g></g><g fill="#8e44ad"><g><path d="M232.70625,118.125c-3.74063,-9.25313 -16.73437,-9.45 -21.2625,-0.59062c-16.34063,33.27187 -57.88125,56.7 -106.3125,56.7c-0.19688,0 -0.19688,0 -0.39375,0c-12.40313,0 -16.34063,16.34062 -5.5125,22.05c13.97813,7.28438 30.90937,11.41875 48.825,11.41875c49.02187,0 88.59375,-30.90938 88.59375,-68.90625c0.19687,-7.0875 -1.18125,-13.97813 -3.9375,-20.67187z"></path></g></g><g fill="#8e44ad"><g><path d="M137.41875,207.30938c21.65625,-14.9625 36.61875,-44.29687 36.61875,-78.15938c0,-22.64062 2.3625,-34.05937 -18.9,-40.55625c-2.95313,-0.19687 -61.425,114.58125 -17.71875,118.71563z"></path></g></g><g fill="#444b54"><g><path d="M148.24687,213.80625c-52.17187,0 -94.5,-33.46875 -94.5,-74.8125c0,-3.34687 2.55938,-5.90625 5.90625,-5.90625c3.34687,0 5.90625,2.55938 5.90625,5.90625c0,34.65 37.0125,63 82.6875,63c45.675,0 82.6875,-28.35 82.6875,-63c0,-27.5625 -23.23125,-51.77812 -57.88125,-60.04687c-3.15,-0.7875 -5.11875,-3.9375 -4.33125,-7.0875c0.7875,-3.15 3.9375,-5.11875 7.0875,-4.33125c40.1625,9.64688 66.9375,38.39063 66.9375,71.6625c0,41.14687 -42.32812,74.61562 -94.5,74.61562z"></path></g></g><g fill="#f1c40f"><g><ellipse cx="24.55251" cy="52.31922" transform="rotate(-21.18108) scale(1.96866,1.96866)" rx="31.7" ry="14.2"></ellipse></g></g><g fill="#8e44ad"><g><circle cx="88.8" cy="65.6" transform="scale(1.96875,1.96875)" r="3"></circle></g></g><g fill="#9b59b6"><g><path d="M139.58438,54.3375c0.39375,0.59062 0.59062,1.18125 0.7875,1.77187c5.5125,14.37187 -15.94687,36.225 -48.0375,48.62813c-32.09062,12.40312 -62.60625,10.82813 -68.31563,-3.54375c-0.98437,-2.55937 -1.18125,-5.11875 -0.59062,-8.07188c-0.59063,1.575 -1.18125,3.15 -1.77188,4.725c-16.5375,45.87187 -1.18125,93.7125 34.65,106.70625c35.83125,12.99375 78.35625,-13.78125 95.09063,-59.65313c12.6,-34.45312 7.0875,-70.0875 -11.8125,-91.15312"></path></g></g><g fill="#8e44ad"><g><ellipse cx="-30.36092" cy="80.45909" transform="rotate(-70.00123) scale(1.96875,1.96875)" rx="3" ry="3"></ellipse></g></g><g fill="#8e44ad"><g><ellipse cx="-59.37253" cy="43.46312" transform="rotate(-70.00123) scale(1.96875,1.96875)" rx="3" ry="3"></ellipse></g></g><g fill="#8e44ad"><g><ellipse cx="-65.33649" cy="56.37839" transform="rotate(-70.00123) scale(1.96875,1.96875)" rx="3" ry="3"></ellipse></g></g><g fill="#8e44ad"><g><path d="M38.19375,193.725c-7.48125,-6.69375 -3.15,-21.06563 6.69375,-20.08125c64.96875,6.3 79.5375,-28.54687 89.775,-80.52188c0,-0.19687 0.19687,-0.19687 0.19687,-0.39375c0,-11.61562 21.06563,-9.84375 22.64063,2.3625c1.96875,15.55313 0.19687,32.87812 -5.90625,49.80938c-16.73437,46.06875 -59.25938,72.64687 -95.09062,59.65313c-7.0875,-2.3625 -13.19063,-6.10313 -18.30938,-10.82812z"></path></g></g><g fill="#444b54"><g><path d="M75.20625,213.80625c-7.0875,0 -14.175,-1.18125 -20.86875,-3.74062c-19.09688,-6.89062 -33.46875,-22.64062 -40.55625,-44.69062c-6.89062,-21.45938 -6.10312,-46.06875 2.55938,-69.69375c0.59062,-1.575 1.18125,-3.34688 1.96875,-4.92187c1.18125,-2.75625 4.33125,-4.33125 7.0875,-3.34688c2.95313,0.7875 4.725,3.74062 4.13437,6.69375c-0.39375,1.77188 -0.19687,3.34688 0.19687,4.725c3.74063,9.64687 30.51563,11.8125 60.6375,0.19687c14.76563,-5.70937 27.5625,-13.58437 36.02813,-22.24687c7.0875,-7.28438 10.2375,-14.175 8.6625,-18.70312c-0.19687,-0.39375 -0.19687,-0.59063 -0.39375,-0.98437c-5.11875,-8.85937 -30.51563,-10.63125 -60.24375,0.7875c-13.3875,5.11875 -25.59375,12.40313 -34.05937,20.27813c-2.3625,2.16562 -6.10313,1.96875 -8.26875,-0.39375c-2.16563,-2.3625 -1.96875,-6.10313 0.39375,-8.26875c9.45,-8.85937 22.8375,-16.73437 37.8,-22.44375c32.48438,-12.6 62.40938,-11.61562 73.04063,2.16563c0.39375,0.19688 0.59062,0.39375 0.7875,0.7875c20.86875,23.42812 25.79062,61.62188 12.79688,97.05937c-8.46563,23.42812 -23.82188,42.91875 -42.72188,54.92812c-12.6,7.875 -25.9875,11.8125 -38.98125,11.8125zM24.01875,110.84062c-4.33125,17.52188 -4.13437,35.24062 0.98438,50.99062c5.90625,18.30937 17.71875,31.69687 33.27188,37.40625c15.55313,5.70937 33.075,3.15 49.41563,-7.0875c16.93125,-10.63125 30.31875,-27.95625 37.99687,-49.02187c9.05625,-25.00313 8.46562,-51.1875 -1.18125,-71.07188c-2.16563,4.33125 -5.31563,8.85938 -9.84375,13.3875c-9.64688,9.84375 -24.01875,18.70313 -40.1625,25.00312c-30.31875,11.61563 -58.07813,11.41875 -70.48125,0.39375z"></path></g></g></g></g></g></svg>
