<svg xmlns="http://www.w3.org/2000/svg" xmlns:xlink="http://www.w3.org/1999/xlink" viewBox="0 0 48 48" version="1.1">
<g id="surface1">
<path style=" fill:#EF6C00;" d="M 43 6 C 42.898438 4.898438 42 5 42 5 C 42 5 29.699219 4.199219 22.898438 11 C 19.199219 14.800781 17.898438 18.800781 16.699219 22.398438 C 16 24.5 15.101563 26.300781 14.300781 28.101563 C 12.101563 33 10.5 34.398438 9 35 C 8.300781 35.300781 5.601563 35.199219 5 36.398438 C 4.699219 37 5.101563 37.699219 5.699219 38.398438 C 8 40.699219 12.898438 43 18.699219 43 C 18.898438 43 19.101563 43 19.300781 43 C 23.699219 42.898438 29.199219 42.101563 35 36 C 39.699219 31.101563 40.898438 23.699219 40.898438 18 C 40.898438 14.898438 40.5 12.398438 40 11 C 39.101563 8.101563 43 6.898438 43 6 Z "></path>
<path style=" fill:#BF360C;" d="M 34 18 C 33.601563 18 33.300781 17.800781 33.101563 17.5 C 31.800781 15 29 15 29 15 C 28.5 15 28 14.601563 28 14 C 28 13.398438 28.398438 13 29 13 C 29.199219 13 33 12.898438 34.898438 16.5 C 35.199219 17 35 17.601563 34.5 17.898438 C 34.300781 18 34.199219 18 34 18 Z M 35.5 25.898438 C 36 25.601563 36.199219 25 35.898438 24.601563 C 34.398438 21.601563 31.300781 21.101563 31.199219 21.101563 C 30.601563 21 30.101563 21.398438 30.101563 21.898438 C 30 22.398438 30.398438 23 30.898438 23 C 30.898438 23 33.101563 23.398438 34.199219 25.5 C 34.398438 25.800781 34.699219 26 35.101563 26 C 35.199219 26 35.300781 26 35.5 25.898438 Z M 25.398438 26.898438 C 25.898438 26.699219 26.199219 26.101563 25.898438 25.601563 C 24.898438 23.199219 22.199219 23 22 23 C 21.5 23 21 23.398438 20.898438 23.898438 C 20.898438 24.398438 21.300781 24.898438 21.800781 25 C 21.800781 25 23.5 25.199219 24 26.398438 C 24.199219 26.800781 24.5 27 24.898438 27 C 25.101563 27 25.300781 27 25.398438 26.898438 Z M 28.199219 36 C 28.699219 35.898438 29.101563 35.398438 29 34.800781 C 28.601563 33.101563 27.101563 32.199219 26.300781 32 C 25.800781 31.898438 25.199219 32.199219 25.101563 32.699219 C 25 33.199219 25.300781 33.800781 25.800781 33.898438 C 25.800781 33.898438 26.898438 34.199219 27.101563 35.101563 C 27.199219 35.601563 27.601563 35.898438 28.101563 35.898438 C 28.101563 36 28.101563 36 28.199219 36 Z M 19.199219 36 C 19.699219 35.898438 20.101563 35.398438 20 34.800781 C 19.601563 33 18.101563 32.199219 17.199219 32 C 16.699219 31.898438 16.101563 32.199219 16 32.800781 C 15.898438 33.300781 16.199219 33.898438 16.800781 34 C 16.800781 34 17.800781 34.199219 18 35.199219 C 18.101563 35.699219 18.5 36 19 36 C 19.101563 36 19.101563 36 19.199219 36 Z "></path>
<path style=" fill:#D84315;" d="M 21 40 C 13.199219 40.398438 12 35 12 35 C 12 35 11.898438 33.601563 12.5 31.601563 C 11.199219 33.699219 10.101563 34.5 9 35 C 8.601563 35.199219 7.300781 35.199219 6.398438 35.5 C 5.800781 35.699219 5.300781 36 5.101563 36.398438 C 5 36.601563 4.898438 36.699219 5 36.898438 C 5 37.398438 5.300781 37.898438 5.800781 38.398438 C 8.101563 40.699219 13 43 18.800781 43 C 19 43 19.199219 43 19.398438 43 C 21 43 22.800781 42.800781 24.699219 42.398438 C 26.300781 42 28 41.398438 29.699219 40.398438 C 30.398438 40 31.101563 39.5 31.800781 39 C 32.5 38.5 33.199219 37.898438 34 37.199219 C 34.398438 36.898438 34.699219 36.5 35.101563 36.101563 C 36.898438 34.300781 38.101563 32.101563 39 29.699219 C 39.300781 28.898438 39.601563 28.101563 39.800781 27.300781 C 40 26.5 40.199219 25.699219 40.398438 24.898438 C 40.601563 24.101563 40.699219 23.300781 40.800781 22.5 C 40.898438 21.300781 41 20.199219 41 19.101563 C 41 18.699219 41 18.398438 41 18 C 41.199219 30.898438 28.800781 39.601563 21 40 Z "></path>
</g>
</svg>
